<svg id="suitcase" xmlns="http://www.w3.org/2000/svg" width="38.85" height="31.566" viewBox="0 0 38.85 31.566">
  <path id="Path_27" data-name="Path 27" d="M2.779,5.387H6.026V31.563H2.779A2.785,2.785,0,0,1,0,28.783V8.163A2.784,2.784,0,0,1,2.779,5.387ZM16.548,0h5.53A3.136,3.136,0,0,1,25.2,3.127V4.8H23.213V3.121a1.1,1.1,0,0,0-1.1-1.1H16.51a1.1,1.1,0,0,0-1.1,1.1V4.8H13.421V3.127A3.136,3.136,0,0,1,16.548,0ZM7.676,5.387H30.8V31.563H7.676V5.387Zm24.778,0h3.617A2.787,2.787,0,0,1,38.85,8.166v20.62a2.787,2.787,0,0,1-2.779,2.779H32.454V5.387Z" fill="#fff" fill-rule="evenodd"/>
</svg>
